<?xml version="1.0"?><svg width="977.22565" height="504.75369" xmlns="http://www.w3.org/2000/svg">
 <title>burger clip</title>
 <defs>
  <linearGradient id="linearGradient3790">
   <stop stop-color="#f2a314" offset="0" id="stop3792"/>
   <stop stop-color="#eca310" stop-opacity="0.74902" id="stop3798" offset="0.25"/>
   <stop stop-color="#e6a40d" stop-opacity="0.498039" id="stop3796" offset="0.5"/>
   <stop stop-color="#daa507" stop-opacity="0" offset="1" id="stop3794"/>
  </linearGradient>
  <linearGradient id="linearGradient3772">
   <stop stop-color="#be8a26" id="stop3774" offset="0"/>
   <stop stop-color="#e3a01e" stop-opacity="0.498039" offset="0.5" id="stop3780"/>
   <stop stop-color="#e3a01e" stop-opacity="0" id="stop3776" offset="1"/>
  </linearGradient>
  <linearGradient id="linearGradient3754">
   <stop stop-color="#ac5e0d" id="stop3756" offset="0"/>
   <stop stop-color="#e3851c" stop-opacity="0.949153" offset="0.5" id="stop3762"/>
   <stop stop-color="#000000" stop-opacity="0" id="stop3758" offset="1"/>
  </linearGradient>
 </defs>
 <metadata id="metadata2821">image/svg+xml</metadata>
 <g>
  <title>Layer 1</title>
  <g id="layer1">
   <g id="g3906">
    <path fill="#daa507" d="m453.638,306.729156c-5.826691,45.034821 -16.739136,133.8909 12.874847,132.980377c146.454437,14.397339 279.265533,3.210724 410.014801,-8.108551c26.462524,-7.350281 10.483337,-86.157257 9.903809,-129.736969l-432.793457,4.865143z" id="path3608"/>
    <path fill="#803300" d="m449.048859,242.834412c-13.398346,7.653595 -24.395081,80.411774 2.286377,94.964935c144.870697,23.593872 291.350189,-13.346985 428.553009,-23.673309c33.400208,10.847534 22.63501,-95.327209 -4.58313,-109.762619c-144.163269,-9.244766 -285.811951,8.21553 -426.256256,38.470993z" id="path3606"/>
    <path fill="#552200" d="m459.983246,223.298431c-12.640442,4.802246 -27.22995,87.753815 -2.057709,96.885223c104.16449,12.593689 -35.808044,-46.352081 408.526428,-52.153259c31.510925,6.806305 21.354614,-59.81311 -4.323914,-68.870605c-136.008545,-5.800613 -269.644836,5.154816 -402.144806,24.138641z" id="path3606-6"/>
    <path fill="#ffdd55" d="m446.700928,214.291595l394.082153,-9.73027c-84.766235,51.603622 -134.073364,8.167984 -268.692383,175.144852c-99.301361,-177.357452 -90.911224,-119.964661 -125.389771,-165.414581z" id="path3604"/>
    <path fill="#ffcc00" d="m449.86203,194.831039l394.082184,-9.73027c-84.766296,51.603638 -134.073364,8.167999 -268.692383,175.144867c-99.301392,-177.357437 -90.911255,-119.964691 -125.389801,-165.414597z" id="path3604-9"/>
    <path fill="#44aa00" d="m492.792175,162.956085l354.148621,-2.181c76.205933,47.09317 129.446045,84.248413 33.175537,56.706146c39.960205,89.857269 -66.783142,6.787567 -59.715881,-17.448059c39.451782,94.440979 -2.396667,71.700256 -29.028687,30.534119c-4.616455,59.266571 -37.888977,13.035553 -63.033447,-3.271515l29.858032,-19.629028c-20.16803,136.834961 -71.835754,22.691132 -79.621277,-10.905045c30.313477,65.318497 -21.627563,111.43251 -39.810608,-4.36203c36.129456,53.991806 -20.957581,110.915665 -53.910217,73.063705l40.640015,-47.982147c-81.869568,161.006287 -101.765808,8.833801 -100.355957,-10.904999l19.905334,25.081573c-14.568481,80.919769 -60.614075,-38.41687 -68.839233,-68.701721l16.587769,0z" id="path3602"/>
    <path fill="#338000" d="m490.764343,209.927338l333.441406,-40.967834c72.802002,11.950806 123.758118,22.157486 32.494324,21.009964c39.616516,34.717453 -62.737305,10.50943 -56.618164,-0.870621c39.239075,36.776215 -0.671265,31.575867 -26.659973,16.61145c-3.036377,26.398071 -35.390564,9.972626 -59.428772,5.693817l27.682007,-11.943893c-15.96521,62.022385 -67.143372,18.023972 -75.217712,4.235199c29.989685,25.093643 -17.901428,51.096359 -37.584839,2.59375c35.216003,19.491043 -17.281921,50.794937 -49.149414,37.991745l37.208069,-25.541443c-73.532776,79.547485 -95.634033,15.355499 -94.74292,6.578033l19.298828,8.701752c-11.928894,36.976563 -57.927795,-9.924286 -66.342957,-22.217621l15.620117,-1.874298z" id="path3602-3"/>
    <path fill="#eb3f0b" d="m717.500732,157.531662c-102.895508,9.425339 -205.649048,19.360504 -300.303284,58.381638c0.623016,45.845459 4.012939,57.623322 7.375854,69.733582c86.036407,-56.248322 194.648071,-70.03067 305.571777,-79.463867c-0.155273,-11.010559 3.510864,-17.119904 -12.644348,-48.651352z" id="path3600"/>
    <path fill="#d40000" d="m713.059875,165.640228c-123.996033,2.579315 -208.356689,30.475372 -292.701355,58.381622c74.400665,-8.900604 197.610596,-38.585541 179.538025,-8.108551c36.366333,-7.472534 73.660522,-14.023193 118.603821,-12.973709c5.201477,-26.373199 -2.892212,-26.32634 -5.440491,-37.299362z" id="path3838"/>
    <path fill="#daa507" d="m451.4617,200.986084c153.430634,-4.126465 298.902618,-10.435837 425.261749,-21.987595c36.465759,-184.584354 -450.155121,-200.745981 -425.261749,21.987595z" id="path2826"/>
    <path fill="#d3bc5f" d="m451.969391,371.597656c0.013123,22.043182 -4.691925,48.443268 8.429596,58.381592c121.434021,19.043854 251.938965,2.433411 365.632446,1.621735c-435.216034,7.408051 -321.81015,-35.765259 -374.062042,-60.003326z" id="path3814"/>
    <path fill="#d3bc5f" d="m478.190033,123.78804c-8.255493,-9.771698 -33.239685,52.931534 -17.912842,71.355301c271.55838,-8.525238 251.938995,-12.161987 365.632477,-12.973679c-435.216034,7.408005 -336.56189,-8.196136 -347.719635,-58.381622z" id="path3814-0"/>
   </g>
  </g>
 </g>
</svg>